<?xml version="1.0" encoding="UTF-8" standalone="no"?>
<!DOCTYPE svg PUBLIC "-//W3C//DTD SVG 1.1//EN" "http://www.w3.org/Graphics/SVG/1.1/DTD/svg11.dtd">
<svg width="100%" height="100%" viewBox="0 0 415 319" version="1.1" xmlns="http://www.w3.org/2000/svg" xmlns:xlink="http://www.w3.org/1999/xlink" xml:space="preserve" xmlns:serif="http://www.serif.com/" style="fill-rule:evenodd;clip-rule:evenodd;stroke-linejoin:round;stroke-miterlimit:2;">
    <g id="Artboard1" transform="matrix(0.323958,0,0,0.398333,0,0)">
        <rect x="0" y="0" width="1280" height="800" style="fill:none;"/>
        <g transform="matrix(3.08682,0,0,2.51046,-1502.25,-649.372)">
            <path d="M819.667,270.453C819.667,268.059 817.727,266.118 815.333,266.118L570.435,266.118C568.041,266.118 566.1,268.059 566.1,270.453L566.1,515.35C566.1,517.744 568.041,519.685 570.435,519.685L815.333,519.685C817.727,519.685 819.667,517.744 819.667,515.35L819.667,270.453ZM692.884,274.787L692.884,392.902L574.769,392.902L574.769,511.016L692.884,511.016L692.884,392.902L810.998,392.902L810.998,274.787L692.884,274.787Z" style="fill:white;fill-opacity:0.5;"/>
        </g>
        <g transform="matrix(3.55182,1.12492,-1.38319,2.88864,-1349.55,-1332.91)">
            <path d="M813.643,207.158C826.102,239.235 833.079,275.143 833.079,313.043C833.079,350.944 826.102,386.852 813.643,418.929C800.16,376.675 777.444,340.118 748.567,313.043C777.444,285.969 800.16,249.412 813.643,207.158ZM507.298,313.043C540.816,281.618 582.62,262.96 627.933,262.96C673.245,262.96 715.049,281.618 748.567,313.043C715.049,344.469 673.245,363.127 627.933,363.127C582.62,363.127 540.816,344.469 507.298,313.043ZM579.042,290.24C591.628,290.24 601.846,300.458 601.846,313.043C601.846,325.629 591.628,335.847 579.042,335.847C566.456,335.847 556.238,325.629 556.238,313.043C556.238,300.458 566.456,290.24 579.042,290.24Z" style="fill:white;"/>
        </g>
    </g>
</svg>
